<svg xmlns="http://www.w3.org/2000/svg"  viewBox="0 0 356 356" width="256px" height="256px" fill-rule="evenodd" clip-rule="evenodd"><path fill="#f9a12a" d="M195.005,142.993l-0,-69.229c-0,-2.508 -1.682,-4.706 -4.103,-5.362c-2.421,-0.656 -4.982,0.392 -6.248,2.557c-16.029,27.406 -46.636,79.737 -62.309,106.536c-2.01,3.436 -2.028,7.685 -0.047,11.138c1.981,3.453 5.657,5.582 9.638,5.582c17.996,0 42.034,0 42.034,0l-0,69.229c-0,2.509 1.681,4.706 4.102,5.362c2.422,0.656 4.983,-0.392 6.249,-2.557c16.028,-27.405 46.635,-79.737 62.309,-106.536c2.009,-3.436 2.027,-7.685 0.047,-11.138c-1.981,-3.453 -5.658,-5.582 -9.639,-5.582c-17.995,-0 -42.033,-0 -42.033,-0Z"/><path fill="#ffd541" d="M193.105,154.731c0,-0 1.9,-54.481 1.9,-80.967c-0,-2.508 -1.682,-4.706 -4.103,-5.362c-2.421,-0.656 -4.982,0.392 -6.248,2.557c-15.951,27.272 -32.769,73.434 -40.926,97.11c-1.185,3.421 -0.627,7.205 1.496,10.138c2.122,2.933 5.542,4.647 9.162,4.59c10.15,-0.143 21.483,-0.319 21.483,-0.319c0,-0 -1.899,54.48 -1.899,80.966c-0,2.509 1.681,4.706 4.102,5.362c2.422,0.656 4.983,-0.392 6.249,-2.557c15.95,-27.272 32.769,-73.434 40.925,-97.109c1.185,-3.421 0.627,-7.206 -1.495,-10.139c-2.123,-2.933 -5.543,-4.646 -9.163,-4.59c-10.15,0.144 -21.483,0.32 -21.483,0.32Z"/><path fill="url(#_Linear1)" d="M193.105,154.731c0,-0 1.9,-54.481 1.9,-80.967c-0,-2.508 -1.682,-4.706 -4.103,-5.362c-2.421,-0.656 -4.982,0.392 -6.248,2.557c-15.951,27.272 -32.769,73.434 -40.926,97.11c-1.185,3.421 -0.627,7.205 1.496,10.138c2.122,2.933 5.542,4.647 9.162,4.59c10.15,-0.143 21.483,-0.319 21.483,-0.319c0,-0 -1.899,54.48 -1.899,80.966c-0,2.509 1.681,4.706 4.102,5.362c2.422,0.656 4.983,-0.392 6.249,-2.557c15.95,-27.272 32.769,-73.434 40.925,-97.109c1.185,-3.421 0.627,-7.206 -1.495,-10.139c-2.123,-2.933 -5.543,-4.646 -9.163,-4.59c-10.15,0.144 -21.483,0.32 -21.483,0.32Z"/><path fill="url(#_Linear2)" d="M283.714,77.469c-24.729,-27.099 -59.994,-44.127 -99.225,-44.136c-40.792,-0.009 -77.392,18.093 -102.201,46.687c-2.01,2.316 -1.761,5.827 0.555,7.837c2.316,2.009 5.828,1.76 7.837,-0.555c22.772,-26.246 56.364,-42.866 93.806,-42.858c35.991,0.008 68.334,15.654 91.021,40.515c2.067,2.265 5.584,2.426 7.849,0.359c2.264,-2.067 2.425,-5.584 0.358,-7.849Z"/><path fill="url(#_Linear3)" d="M55.288,128.52c-3.917,12.663 -6.03,26.12 -6.071,40.068c-0.194,64.519 43.973,118.474 105.255,132.017c2.994,0.662 5.962,-1.232 6.624,-4.226c0.662,-2.994 -1.232,-5.962 -4.226,-6.623c-56.222,-12.425 -96.72,-61.943 -96.542,-121.135c0.038,-12.817 1.976,-25.182 5.575,-36.818c0.906,-2.929 -0.737,-6.043 -3.666,-6.949c-2.929,-0.906 -6.043,0.736 -6.949,3.666Z"/><path fill="url(#_Linear4)" d="M78.415,138.209l-6.344,-34.466l-30.734,16.84l37.078,17.626Z"/><path fill="url(#_Linear5)" d="M76.03,143.227c1.885,0.896 4.112,0.66 5.768,-0.61c1.655,-1.27 2.459,-3.361 2.081,-5.413l-6.344,-34.467c-0.323,-1.754 -1.468,-3.246 -3.079,-4.012c-1.61,-0.765 -3.49,-0.711 -5.054,0.146l-30.735,16.84c-1.83,1.003 -2.943,2.946 -2.883,5.032c0.06,2.086 1.283,3.962 3.168,4.858l37.078,17.626Zm-5.046,-14.702l-17.445,-8.293c-0,0 14.46,-7.923 14.46,-7.923l2.985,16.216Z"/><path fill="url(#_Linear6)" d="M263.415,91.665l32.709,12.583l1.681,-35.006l-34.39,22.423Z"/><path fill="url(#_Linear7)" d="M260.381,87.012c-1.748,1.139 -2.71,3.162 -2.491,5.237c0.219,2.075 1.583,3.852 3.53,4.601l32.709,12.583c1.665,0.64 3.535,0.442 5.029,-0.532c1.494,-0.974 2.429,-2.606 2.515,-4.387l1.681,-35.005c0.101,-2.084 -0.976,-4.049 -2.786,-5.086c-1.81,-1.038 -4.049,-0.974 -5.797,0.166l-34.39,22.423Zm15.173,3.371l16.181,-10.55c-0,-0 -0.791,16.469 -0.791,16.469l-15.39,-5.919Z"/><path fill="url(#_Linear8)" d="M214.219,300.602c60.648,-13.553 106.56,-67.604 105.538,-132.086c-0.251,-15.882 -3.17,-31.127 -8.321,-45.287c-1.048,-2.882 -4.238,-4.37 -7.12,-3.322c-2.881,1.048 -4.37,4.238 -3.322,7.12c4.739,13.027 7.422,27.054 7.654,41.665c0.937,59.131 -41.237,108.638 -96.852,121.066c-2.993,0.669 -4.879,3.642 -4.21,6.634c0.668,2.992 3.641,4.879 6.633,4.21Z"/><path fill="url(#_Linear9)" d="M211.228,275.727l-26.79,22.594l29.86,18.346l-3.07,-40.94Z"/><path fill="url(#_Linear10)" d="M216.768,275.311c-0.156,-2.08 -1.465,-3.898 -3.389,-4.706c-1.924,-0.808 -4.138,-0.47 -5.733,0.875l-26.79,22.594c-1.363,1.15 -2.091,2.884 -1.958,4.663c0.133,1.778 1.112,3.384 2.632,4.318l29.86,18.345c1.778,1.093 4.018,1.096 5.8,0.011c1.781,-1.086 2.804,-3.079 2.648,-5.16l-3.07,-40.94Zm-10.267,11.67l1.444,19.262c0,0 -14.049,-8.631 -14.049,-8.631l12.605,-10.631Z"/><defs><linearGradient id="_Linear1" x1="0" x2="1" y1="0" y2="0" gradientTransform="rotate(90 57.622 126.865) scale(194.304)" gradientUnits="userSpaceOnUse"><stop offset="0" stop-color="#ffd541"/><stop offset="1" stop-color="#ffa501"/></linearGradient><linearGradient id="_Linear2" x1="0" x2="1" y1="0" y2="0" gradientTransform="rotate(90 61.582 122.856) scale(302.036)" gradientUnits="userSpaceOnUse"><stop offset="0" stop-color="#60828f"/><stop offset="1" stop-color="#35525e"/></linearGradient><linearGradient id="_Linear3" x1="0" x2="1" y1="0" y2="0" gradientTransform="rotate(90 61.582 122.856) scale(302.036)" gradientUnits="userSpaceOnUse"><stop offset="0" stop-color="#60828f"/><stop offset="1" stop-color="#35525e"/></linearGradient><linearGradient id="_Linear4" x1="0" x2="1" y1="0" y2="0" gradientTransform="rotate(90 61.582 122.856) scale(302.036)" gradientUnits="userSpaceOnUse"><stop offset="0" stop-color="#60828f"/><stop offset="1" stop-color="#35525e"/></linearGradient><linearGradient id="_Linear5" x1="0" x2="1" y1="0" y2="0" gradientTransform="rotate(90 61.582 122.856) scale(302.036)" gradientUnits="userSpaceOnUse"><stop offset="0" stop-color="#60828f"/><stop offset="1" stop-color="#35525e"/></linearGradient><linearGradient id="_Linear6" x1="0" x2="1" y1="0" y2="0" gradientTransform="rotate(90 61.582 122.856) scale(302.036)" gradientUnits="userSpaceOnUse"><stop offset="0" stop-color="#60828f"/><stop offset="1" stop-color="#35525e"/></linearGradient><linearGradient id="_Linear7" x1="0" x2="1" y1="0" y2="0" gradientTransform="rotate(90 61.582 122.856) scale(302.036)" gradientUnits="userSpaceOnUse"><stop offset="0" stop-color="#60828f"/><stop offset="1" stop-color="#35525e"/></linearGradient><linearGradient id="_Linear8" x1="0" x2="1" y1="0" y2="0" gradientTransform="rotate(90 61.582 122.856) scale(302.036)" gradientUnits="userSpaceOnUse"><stop offset="0" stop-color="#60828f"/><stop offset="1" stop-color="#35525e"/></linearGradient><linearGradient id="_Linear9" x1="0" x2="1" y1="0" y2="0" gradientTransform="rotate(90 61.582 122.856) scale(302.036)" gradientUnits="userSpaceOnUse"><stop offset="0" stop-color="#60828f"/><stop offset="1" stop-color="#35525e"/></linearGradient><linearGradient id="_Linear10" x1="0" x2="1" y1="0" y2="0" gradientTransform="rotate(90 61.582 122.856) scale(302.036)" gradientUnits="userSpaceOnUse"><stop offset="0" stop-color="#60828f"/><stop offset="1" stop-color="#35525e"/></linearGradient></defs></svg>