<svg xmlns="http://www.w3.org/2000/svg"  viewBox="0 0 48 48" width="144px" height="144px"><circle cx="38" cy="10" r="4" fill="#3dd9eb"/><polygon fill="#3dd9eb" points="9.7,41.1 6.3,38.9 20.5,16 30.2,23.8 36.2,9.2 39.8,10.8 31.8,30.2 21.5,22"/><circle cx="21" cy="19" r="4" fill="#3dd9eb"/><circle cx="31" cy="27" r="4" fill="#3dd9eb"/><path fill="#00b3d7" d="M34.8,12.4c0.7,0.9,1.9,1.6,3.2,1.6c0.2,0,0.4,0,0.5,0l1.3-3.2l-3.7-1.5L34.8,12.4z"/><rect width="4" height="36" x="6" y="6" fill="#6c19ff"/><rect width="36" height="4" x="6" y="38" fill="#6c19ff"/><rect width="4" height="4" x="6" y="38" fill="#2100c4"/><path fill="#00b3d7" d="M25,19.6L20.5,16l-3,4.9c0.7,1.3,2,2.1,3.5,2.1c0.5,0,1-0.1,1.5-0.3l0,0l0,0C23.8,22.2,24.7,21,25,19.6z"/><path fill="#00b3d7" d="M31.8,30.2l2.3-5.7C33.4,23.6,32.3,23,31,23c-0.2,0-0.4,0-0.5,0l0,0l0,0c-0.3,0-0.6,0.1-0.9,0.2l0,0l0,0 c-1.3,0.5-2.3,1.7-2.5,3.1L31.8,30.2z"/></svg>