<svg xmlns="http://www.w3.org/2000/svg"  viewBox="0 0 48 48" width="144px" height="144px"><path fill="#3dd9eb" d="M35.893,18.884L24,4L12.107,18.884C10.166,21.412,9,24.566,9,28c0,8.284,6.716,15,15,15 s15-6.716,15-15C39,24.566,37.834,21.412,35.893,18.884z"/><path fill="#3dd9eb" d="M44.561,19.981l-6.343-7.938l-6.349,7.936l0.006,0.002c-1.035,1.348-1.657,3.031-1.657,4.862 c0,4.418,3.582,8,8,8s8-3.582,8-8C46.218,23.011,45.596,21.329,44.561,19.981z"/><path fill="#00b3d7" d="M39,28c0-3.434-1.166-6.588-3.107-9.116l-1.573-1.969l-2.45,3.063l0.006,0.002 c-1.035,1.348-1.657,3.031-1.657,4.862c0,4.408,3.565,7.981,7.968,7.998C38.705,31.32,39,29.696,39,28z"/></svg>